<svg width="44" height="44" viewBox="0 0 44 44" fill="none" xmlns="http://www.w3.org/2000/svg">
<path d="M9.48195 18.9634C14.7187 18.9634 18.9639 14.7183 18.9639 9.48172C18.9639 4.24511 14.7187 0 9.48195 0C4.24521 0 0 4.24511 0 9.48172C0 14.7183 4.24521 18.9634 9.48195 18.9634Z" transform="translate(12.5181 12.5178)" stroke="black" stroke-width="3" stroke-linecap="round" stroke-linejoin="round"/>
<path d="M0 0V4.0001" transform="translate(22 2)" stroke="black" stroke-width="3" stroke-linecap="round" stroke-linejoin="round"/>
<path d="M0 0L2.82779 2.82921" transform="translate(7.8576 7.85791)" stroke="black" stroke-width="3" stroke-linecap="round" stroke-linejoin="round"/>
<path d="M0 0L4.0002 0.00076503" transform="translate(2 21.9995)" stroke="black" stroke-width="3" stroke-linecap="round" stroke-linejoin="round"/>
<path d="M0 2.82871L2.82928 0" transform="translate(7.8576 33.3134)" stroke="black" stroke-width="3" stroke-linecap="round" stroke-linejoin="round"/>
<path d="M0 4.00109V0" transform="translate(22 37.9989)" stroke="black" stroke-width="3" stroke-linecap="round" stroke-linejoin="round"/>
<path d="M2.82928 2.82871L0 0" transform="translate(33.3132 33.3134)" stroke="black" stroke-width="3" stroke-linecap="round" stroke-linejoin="round"/>
<path d="M4.0002 0H0" transform="translate(37.9998 22.0005)" stroke="black" stroke-width="3" stroke-linecap="round" stroke-linejoin="round"/>
<path d="M2.82928 0L0 2.82921" transform="translate(33.3132 7.85791)" stroke="black" stroke-width="3" stroke-linecap="round" stroke-linejoin="round"/>
</svg>
