<svg width="40" height="40" viewBox="0 0 40 40" fill="none" xmlns="http://www.w3.org/2000/svg">
<rect width="40" height="40" fill="white"/>
<path d="M11.4416 0C5.12715 0 0 5.12129 0 11.4286C0 17.7358 5.12715 22.8571 11.4416 22.8571C17.7561 22.8032 22.8833 17.6819 22.8833 11.4286C22.8833 5.12129 17.7561 0 11.4416 0ZM11.4416 21.7251C5.72081 21.7251 1.0794 17.0889 1.0794 11.3747C1.0794 5.66038 5.72081 1.02426 11.4416 1.02426C17.1624 1.02426 21.8039 5.71428 21.8039 11.4286C21.8039 17.1429 17.1624 21.7251 11.4416 21.7251Z" transform="translate(8.53552 8.62531)" fill="black"/>
<path d="M0.5397 6.09164C0.863519 6.09164 1.0794 5.87601 1.0794 5.55256V0.539083C1.0794 0.215633 0.863519 0 0.5397 0C0.21588 0 0 0.215633 0 0.539083V5.55256C0 5.87601 0.26985 6.09164 0.5397 6.09164Z" transform="translate(19.4374)" fill="black"/>
<path d="M0.291952 5.41291C0.399892 5.46682 0.453862 5.46682 0.561801 5.46682C0.723711 5.46682 0.939592 5.359 1.04753 5.19728L3.53015 0.830703C3.69206 0.561161 3.58412 0.237711 3.31427 0.075986C3.04442 -0.085739 2.7206 0.0220775 2.55869 0.291619L0.0760731 4.65819C-0.0858368 4.98164 0.0221019 5.30509 0.291952 5.41291Z" transform="translate(26.5933 2.51166)" fill="black"/>
<path d="M0.807701 3.5561L5.1253 1.02241C5.39515 0.860686 5.44912 0.537237 5.34118 0.267695C5.17927 -0.00184676 4.85545 -0.0557549 4.5856 0.0520618L0.268002 2.58575C-0.00184809 2.74748 -0.0558189 3.07093 0.052121 3.34047C0.160061 3.50219 0.321972 3.61001 0.537851 3.61001C0.645791 3.61001 0.699761 3.5561 0.807701 3.5561Z" transform="translate(31.9064 9.59753)" fill="black"/>
<path d="M5.55891 0L0.5397 0.107817C0.21588 0.107817 0 0.377359 0 0.6469C0 0.916442 0.26985 1.18598 0.5397 1.18598L5.55891 1.07817C5.88273 1.07817 6.09861 0.808625 6.09861 0.539083C6.09861 0.269542 5.88273 0 5.55891 0Z" transform="translate(33.9014 19.1375)" fill="black"/>
<path d="M5.25719 2.44795L0.831653 0.0759858C0.561803 -0.0857393 0.237982 0.0220783 0.0760726 0.29162C-0.0858373 0.561162 0.0221035 0.88461 0.291953 1.04634L4.71749 3.47221C4.82543 3.52612 4.8794 3.52612 4.98734 3.52612C5.20322 3.52612 5.36513 3.4183 5.47307 3.25658C5.58101 2.93313 5.52704 2.60968 5.25719 2.44795Z" transform="translate(32.0983 26.4469)" fill="black"/>
<path d="M1.00856 0.252696C0.846652 -0.0168452 0.522834 -0.0707552 0.252984 0.0909698C-0.0168659 0.252695 -0.0708354 0.576146 0.0910744 0.845687L2.7356 5.10445C2.84354 5.26617 3.00545 5.37399 3.22133 5.37399C3.32927 5.37399 3.43721 5.37398 3.49118 5.32008C3.76103 5.15835 3.815 4.8349 3.65309 4.56536L1.00856 0.252696Z" transform="translate(27.0101 31.8228)" fill="black"/>
<path d="M0.5397 0C0.21588 0 0 0.269542 0 0.539083L0.161909 5.55256C0.161909 5.8221 0.431759 6.09164 0.701609 6.09164C1.02543 6.09164 1.24131 5.8221 1.24131 5.55256L1.0794 0.539083C1.0794 0.269542 0.809549 0 0.5397 0Z" transform="translate(19.9232 33.9084)" fill="black"/>
<path d="M3.15236 0.0759868C2.88251 -0.0857383 2.55869 0.0220751 2.39678 0.291617L0.0760726 4.7121C-0.0858373 4.98164 0.0221035 5.3051 0.291953 5.46682C0.345923 5.52073 0.453863 5.52073 0.561803 5.52073C0.777683 5.52073 0.939594 5.41291 1.04753 5.25119L3.36824 0.8307C3.53015 0.50725 3.42221 0.183803 3.15236 0.0759868Z" transform="translate(10.3484 32.269)" fill="black"/>
<path d="M4.46264 0.0778677L0.252984 2.77328C-0.0168659 2.93501 -0.0708354 3.25846 0.0910744 3.528C0.199014 3.68973 0.360924 3.79754 0.522834 3.79754C0.630774 3.79754 0.738714 3.74363 0.792683 3.68972L5.00234 0.994308C5.27219 0.832583 5.32616 0.509134 5.16425 0.239592C5.05631 0.023959 4.73249 -0.0838573 4.46264 0.0778677Z" transform="translate(3.04749 27.2537)" fill="black"/>
<path d="M6.0529 0.493432C6.0529 0.169982 5.78305 -0.0456526 5.5132 0.0082557L0.493995 0.277797C0.170175 0.277797 -0.0457048 0.547339 0.00826517 0.816881C0.00826517 1.08642 0.278115 1.35596 0.547965 1.35596C0.547965 1.35596 0.547964 1.35596 0.601934 1.35596L5.62114 1.08642C5.83702 1.08642 6.10687 0.816882 6.0529 0.493432Z" transform="translate(0 20.2073)" fill="black"/>
<path d="M0.291952 0.968504L4.77146 3.23265C4.82543 3.28656 4.93337 3.28656 5.04131 3.28656C5.25719 3.28656 5.4191 3.17875 5.52704 3.01702C5.63498 2.74748 5.58101 2.42403 5.31116 2.31621L0.777682 0.0520615C0.507832 -0.0557551 0.184013 -0.00184598 0.0760729 0.267696C-0.085837 0.537237 0.0221027 0.860687 0.291952 0.968504Z" transform="translate(2.03705 10.7296)" fill="black"/>
<path d="M2.84354 5.10445C2.95148 5.26617 3.11339 5.32008 3.2753 5.32008C3.38324 5.32008 3.49118 5.26617 3.59912 5.21226C3.86897 5.05054 3.92294 4.72709 3.76103 4.45755L1.00856 0.252696C0.846653 -0.0168459 0.522834 -0.0707549 0.252984 0.0909701C-0.0168659 0.252695 -0.0708354 0.576145 0.0910744 0.845687L2.84354 5.10445Z" transform="translate(8.71429 3.19745)" fill="black"/>
</svg>
