<svg width="603" height="509" viewBox="0 0 603 509" fill="none" xmlns="http://www.w3.org/2000/svg">
<rect width="603" height="509" fill="#FDFDFD"/>
<mask id="mask0" mask-type="alpha" maskUnits="userSpaceOnUse" x="0" y="0" width="603" height="509">
<rect width="603" height="509" fill="#C4C4C4"/>
</mask>
<g mask="url(#mask0)">
<path opacity="0.1" d="M126.595 83.6725C122.627 88.4928 121.098 95.2702 119.389 101.642C105.629 152.991 71.7211 194.294 33.1056 223.796C16.7527 236.292 -3.15611 253.051 0.421544 275.457C2.34797 287.489 10.7996 296.347 17.0786 306.147C30.2522 326.668 34.5251 354.561 28.2461 379.126C21.1053 407.077 1.14576 433.158 7.32337 461.42C11.1328 478.817 24.0674 491.197 36.5022 501.838C55.9017 518.428 75.9192 533.969 96.5546 548.462C110.387 558.175 125.103 567.627 141.225 568.859C155.419 569.947 169.324 564.546 182.802 559.219C194.578 554.558 206.651 549.708 216.16 540.372C222.366 534.276 227.313 526.411 234.207 521.424C250.401 509.71 271.201 517.133 289.77 522.149C333.585 533.921 380.478 529.622 422.172 510.015C486.128 479.933 534.875 416.761 597.433 382.867C624.331 368.29 653.589 359.243 678.495 340.47C692.527 329.78 704.585 316.72 714.127 301.878C732.957 272.804 743.139 235.734 740.199 199.448C737.259 163.161 720.783 128.194 694.906 107.709C667.205 85.7818 632.218 81.6863 600.699 68.5228C568.153 54.9244 539.199 31.5548 506.964 16.9634C480.88 5.18916 452.493 -0.590758 423.887 0.0476821C395.28 0.686123 367.179 7.72672 341.646 20.6529C306.564 38.412 271.005 79.8452 231.933 82.9911C204.094 85.1657 148.336 57.273 126.595 83.6725Z" transform="translate(-137.7)" fill="#6C63FF"/>
<path d="M2.0115 0C2.0115 0 14.6854 24.899 4.35797 38.5192C-5.96943 52.1394 5.29945 89.2596 5.29945 89.2596" transform="translate(444.86 324.972)" stroke="#6C63FF" stroke-miterlimit="10"/>
<path d="M7.03941 8.69835C7.03941 13.4969 3.5197 17.3967 3.5197 17.3967C3.5197 17.3967 0 13.5042 0 8.69835C0 3.89251 3.5197 0 3.5197 0C3.5197 0 7.03941 3.89976 7.03941 8.69835Z" transform="translate(443.584 308.525)" fill="#6C63FF"/>
<path d="M6.39818 0C6.39818 0 -6.27569 24.899 4.05171 38.5192C14.3791 52.1394 3.11023 89.2596 3.11023 89.2596" transform="translate(447.042 324.972)" stroke="#6C63FF" stroke-miterlimit="10"/>
<path d="M0 8.69835C0 13.4969 3.5197 17.3967 3.5197 17.3967C3.5197 17.3967 7.03941 13.5042 7.03941 8.69835C7.03941 3.89251 3.5197 0 3.5197 0C3.5197 0 0 3.89976 0 8.69835Z" transform="translate(449.689 308.525)" fill="#6C63FF"/>
<path opacity="0.1" d="M0 8.69835C0 13.4969 3.5197 17.3967 3.5197 17.3967C3.5197 17.3967 7.03941 13.5042 7.03941 8.69835C7.03941 3.89251 3.5197 0 3.5197 0C3.5197 0 0 3.89976 0 8.69835Z" transform="translate(449.689 308.525)" fill="black"/>
<path d="M2.0115 0C2.0115 0 14.6854 24.899 4.35797 38.5192C-5.96943 52.1394 5.29945 89.2596 5.29945 89.2596" transform="translate(456.592 324.972)" stroke="#6C63FF" stroke-miterlimit="10"/>
<path d="M7.03945 8.69835C7.03945 13.4969 3.51975 17.3967 3.51975 17.3967C3.51975 17.3967 0 13.5042 0 8.69835C0 3.89251 3.51975 0 3.51975 0C3.51975 0 7.03945 3.89976 7.03945 8.69835Z" transform="translate(455.316 308.525)" fill="#6C63FF"/>
<path d="M8.56025 8.69833C5.23608 12.1559 0 12.5184 0 12.5184C0 12.5184 0.159327 7.27036 3.4835 3.82002C6.80768 0.369672 12.0438 0 12.0438 0C12.0438 0 11.8844 5.24073 8.56025 8.69833Z" transform="translate(451.825 328.473)" fill="#6C63FF"/>
<path d="M8.5603 8.69835C5.23612 12.1559 0 12.5184 0 12.5184C0 12.5184 0.159327 7.27039 3.4835 3.82004C6.80768 0.369694 12.0438 0 12.0438 0C12.0438 0 11.9134 5.23351 8.5603 8.69835Z" transform="translate(452.158 345.652)" fill="#6C63FF"/>
<path d="M8.3507 4.25494C11.4938 7.87925 11.3852 13.1273 11.3852 13.1273C11.3852 13.1273 6.17806 12.4966 3.03494 8.87231C-0.108177 5.248 0.000454098 0 0.000454098 0C0.000454098 0 5.20758 0.630627 8.3507 4.25494Z" transform="translate(434.335 359.541)" fill="#6C63FF"/>
<path d="M9.18312 1.97298C13.1808 4.62598 14.4772 9.71451 14.4772 9.71451C14.4772 9.71451 9.29175 10.5046 5.29405 7.85161C1.29635 5.19861 0 0.110101 0 0.110101C0 0.110101 5.1999 -0.680016 9.18312 1.97298Z" transform="translate(436.421 325.195)" fill="#6C63FF"/>
<path opacity="0.1" d="M9.18312 1.97298C13.1808 4.62598 14.4772 9.71451 14.4772 9.71451C14.4772 9.71451 9.29175 10.5046 5.29405 7.85161C1.29635 5.19861 0 0.110101 0 0.110101C0 0.110101 5.1999 -0.680016 9.18312 1.97298Z" transform="translate(436.421 325.195)" fill="black"/>
<path d="M6.40453 0C6.40453 0 -6.28382 24.899 4.05806 38.541C14.3999 52.1829 3.11653 89.2813 3.11653 89.2813" transform="translate(458.768 324.972)" stroke="#6C63FF" stroke-miterlimit="10"/>
<path d="M0 8.69835C0 13.4969 3.5197 17.3967 3.5197 17.3967C3.5197 17.3967 7.03941 13.5042 7.03941 8.69835C7.03941 3.89251 3.5197 0 3.5197 0C3.5197 0 0 3.89976 0 8.69835Z" transform="translate(461.421 308.525)" fill="#6C63FF"/>
<path opacity="0.1" d="M0 8.69835C0 13.4969 3.5197 17.3967 3.5197 17.3967C3.5197 17.3967 7.03941 13.5042 7.03941 8.69835C7.03941 3.89251 3.5197 0 3.5197 0C3.5197 0 0 3.89976 0 8.69835Z" transform="translate(461.421 308.525)" fill="black"/>
<path d="M3.62111 3.71855C0.253477 7.1399 0 12.4169 0 12.4169C0 12.4169 5.23612 12.1197 8.60375 8.69835C11.9714 5.277 12.2249 0 12.2249 0C12.2249 0 6.98149 0.297197 3.62111 3.71855Z" transform="translate(458.814 333.823)" fill="#6C63FF"/>
<path opacity="0.1" d="M3.62111 3.71855C0.253477 7.1399 0 12.4169 0 12.4169C0 12.4169 5.23612 12.1197 8.60375 8.69835C11.9714 5.277 12.2249 0 12.2249 0C12.2249 0 6.98149 0.297197 3.62111 3.71855Z" transform="translate(458.814 333.823)" fill="black"/>
<path d="M3.62111 3.71855C0.253477 7.1399 0 12.4169 0 12.4169C0 12.4169 5.23612 12.1197 8.60375 8.69835C11.9714 5.277 12.2249 0 12.2249 0C12.2249 0 6.98873 0.2827 3.62111 3.71855Z" transform="translate(465.412 357.62)" fill="#6C63FF"/>
<path d="M0 12.3227C0 12.3227 7.62605 0.289945 18.3373 0" transform="translate(459.321 343.775)" stroke="#6C63FF" stroke-miterlimit="10"/>
<path d="M18.3373 12.3227C18.3373 12.3227 10.7112 0.289945 0 0" transform="translate(435.045 336.505)" stroke="#6C63FF" stroke-miterlimit="10"/>
<path d="M0 12.3227C0 12.3227 7.62605 0.289945 18.3373 0" transform="translate(452.39 353.684)" stroke="#6C63FF" stroke-miterlimit="10"/>
<path d="M1.97711 3.95774C3.06904 3.95774 3.95422 3.07178 3.95422 1.97888C3.95422 0.88598 3.06904 0 1.97711 0C0.885174 0 0 0.88598 0 1.97888C0 3.07178 0.885174 3.95774 1.97711 3.95774Z" transform="translate(475.333 341.731)" fill="#6C63FF"/>
<path d="M1.97715 3.95774C3.06909 3.95774 3.95426 3.07176 3.95426 1.97886C3.95426 0.885958 3.06909 0 1.97715 0C0.885218 0 0 0.885958 0 1.97886C0 3.07176 0.885218 3.95774 1.97715 3.95774Z" transform="translate(433.256 334.627)" fill="#6C63FF"/>
<path d="M18.3373 12.3227C18.3373 12.3227 10.7112 0.289945 0 0" transform="translate(439.666 357.649)" stroke="#6C63FF" stroke-miterlimit="10"/>
<path d="M1.97711 3.95774C3.06904 3.95774 3.95426 3.07178 3.95426 1.97888C3.95426 0.88598 3.06904 0 1.97711 0C0.885174 0 0 0.88598 0 1.97888C0 3.07178 0.885174 3.95774 1.97711 3.95774Z" transform="translate(437.877 355.771)" fill="#6C63FF"/>
<path d="M1.97711 3.95774C3.06904 3.95774 3.95422 3.07178 3.95422 1.97888C3.95422 0.88598 3.06904 0 1.97711 0C0.885174 0 0 0.88598 0 1.97888C0 3.07178 0.885174 3.95774 1.97711 3.95774Z" transform="translate(468.895 351.806)" fill="#6C63FF"/>
<path d="M72.168 18.0659C72.168 18.0659 53.7873 14.3836 48.8843 9.47625C43.9813 4.56893 21.9215 -3.99171 19.4737 2.11888C17.0258 8.22947 -13.616 29.1055 7.21983 32.7878C28.0557 36.4701 56.2424 37.6951 62.3693 35.2379C68.4962 32.7806 72.168 18.0659 72.168 18.0659Z" transform="translate(427.999 381.69)" fill="#A8A8A8"/>
<path opacity="0.2" d="M7.21247 12.5691C28.0483 16.2514 56.235 17.4765 62.3619 15.0192C67.0259 13.149 70.2704 4.14621 71.5522 0L72.1679 0.130514C72.1679 0.130514 68.4888 14.8524 62.3619 17.3025C56.235 19.7525 28.0483 18.5275 7.21247 14.8525C1.20143 13.7869 -0.522233 11.2934 0.129566 8.14024C0.643763 10.1916 2.75851 11.779 7.21247 12.5691Z" transform="translate(427.999 399.647)" fill="black"/>
<path d="M404.579 321.428C397.068 321.423 389.586 322.378 382.316 324.269L355.614 241.78L355.267 240.707L357.541 240.04C362.9 228.246 348.611 226.478 348.611 226.478L347.409 226.884C339.855 224.709 326.769 223.557 313.189 223.02V206.551C313.224 197.519 314.854 188.565 318.005 180.101C318.389 179.065 318.73 178.093 318.99 177.165C319.048 176.977 319.106 176.788 319.157 176.607L319.251 176.267C319.316 176.027 319.389 175.781 319.447 175.542C319.505 175.302 319.534 175.208 319.57 175.034C319.606 174.86 319.657 174.694 319.693 174.527L319.744 174.288C319.802 174.041 319.852 173.802 319.903 173.563C319.903 173.461 319.939 173.36 319.961 173.258C319.983 173.157 320.041 172.852 320.077 172.65C320.113 172.447 320.12 172.374 320.142 172.236C320.164 172.099 320.193 171.932 320.214 171.787C320.236 171.642 320.214 171.598 320.251 171.504C320.287 171.41 320.301 171.149 320.323 170.975V170.837C320.323 170.627 320.374 170.417 320.388 170.214C320.403 170.011 320.388 170.033 320.388 169.939C320.388 169.844 320.388 169.641 320.388 169.496C320.388 169.351 320.388 169.351 320.388 169.279C320.388 169.206 320.388 168.974 320.388 168.822C320.388 168.67 320.388 168.518 320.388 168.373C320.388 168.228 320.388 168.257 320.388 168.199C320.388 168.141 320.388 167.96 320.388 167.844C320.388 167.728 320.388 167.691 320.388 167.626C320.388 167.561 320.388 167.452 320.388 167.365C320.388 167.278 320.388 167.184 320.388 167.097C320.388 167.01 320.388 166.923 320.388 166.836C320.388 166.749 320.388 166.684 320.388 166.611C320.109 163.807 320.07 160.985 320.272 158.174L321.286 145.474C324.271 144.56 327.053 143.084 329.484 141.125C329.484 141.125 330.129 122.185 332.07 107.194C333.318 97.8698 332.192 88.3805 328.795 79.6084C325.398 70.8363 319.84 63.0659 312.639 57.0194C311.335 55.9394 309.981 54.9028 308.569 53.9388C308.837 52.9136 309.04 51.8726 309.177 50.8219C309.823 49.6374 310.595 48.5267 311.48 47.5092C312.697 46.306 314.377 45.6174 315.768 44.6098C318.802 42.341 320.113 38.6442 320.982 35.1068C322.764 27.8582 323.278 19.979 320.258 13.0783C317.238 6.17759 309.894 0.545398 301.906 0.90783C299.458 1.01656 297.068 1.63269 294.664 1.91539C288.305 2.56052 282.012 0.465664 275.631 0.0814866C273.781 -0.145622 271.904 0.103883 270.178 0.806349C268.882 1.51637 267.762 2.50695 266.897 3.7058C263.977 7.48833 261.974 11.8976 261.046 16.5866C260.263 20.1167 260.263 23.3133 255.896 23.8352C250.979 24.4514 235.198 21.146 238.515 31.555C240.101 36.4768 247.713 36.6291 251.616 40.2534C253.644 42.138 254.578 44.9215 256.809 46.6032L256.896 46.6611C246.757 46.8134 230.02 50.8291 220.156 73.2926C205.28 107.187 196.351 118.234 184.445 127.085C173.118 135.5 167.853 162.603 167.367 165.198C164.232 173.121 162.522 187.669 172.538 211.821C181.026 232.298 188.413 246.238 193.62 256.712L192.599 256.618C190.427 256.451 188.265 256.163 186.125 255.755C177.731 254.16 156.577 250.826 150.884 256.48C143.736 263.555 146.119 275.942 165.173 277.711C169.53 278.077 173.905 278.179 178.274 278.016V309.076L177.861 309.33C174.132 311.555 170.54 313.548 168.121 314.86L167.237 315.339C166.539 314.191 165.957 312.977 165.499 311.714L145.829 324.66L155.592 332.772L145.663 343.043C145.351 342.767 145.047 342.485 144.736 342.209C128.795 328.563 108.498 321.085 87.5221 321.13C39.1804 321.13 0 359.947 0 407.824C0 455.701 39.1876 494.517 87.5221 494.517C130.816 494.517 166.766 463.348 173.799 422.481C190.456 423.72 205.94 424.097 216.108 422.611V432.6H260.741V420.523L261.857 420.451C281.939 419.001 271.525 410.136 271.525 410.136C266.919 410.136 261.849 407.57 258.286 405.33C257.033 404.54 255.744 403.823 254.426 403.156C255.636 398.86 255.268 394.272 253.39 390.224L355.194 285.119L370.751 328.176L369.715 328.604C338.725 341.941 317.049 372.538 317.049 408.15C317.049 456.034 356.237 494.844 404.572 494.844C452.906 494.844 492.101 455.998 492.101 408.157C492.101 360.316 452.899 321.428 404.579 321.428ZM409.243 473.112L405.622 417.16C406.292 417.066 406.949 416.901 407.584 416.667L437.495 464.428C428.852 469.418 419.194 472.386 409.243 473.112ZM350.863 446.379L396.67 413.492L396.757 413.608L377.971 467.893C367.19 463.253 357.835 455.828 350.863 446.379ZM435.308 350.023L410.17 399.771C408.994 398.678 407.562 397.9 406.006 397.509L405.397 395.632L407.128 342.427C416.968 342.829 426.595 345.421 435.308 350.016V350.023ZM404.072 391.485L388.762 344.203C393.844 342.992 399.051 342.382 404.275 342.383H405.665L404.072 391.485ZM376.856 348.262C377.196 348.11 377.58 347.972 377.884 347.82L396.772 400.184C396.025 400.945 395.413 401.827 394.961 402.793L346.54 375.901C348.361 372.711 350.447 369.68 352.775 366.84L358.178 360.962C363.632 355.69 369.95 351.394 376.856 348.262ZM345.895 377.191L394.519 404.2C394.3 404.998 394.188 405.822 394.186 406.65C394.186 406.773 394.186 406.896 394.186 407.019L338.233 406.033C338.495 395.957 341.109 386.082 345.866 377.198L345.895 377.191ZM413.776 406.816L467.383 388.311C470.234 397.386 471.059 406.977 469.801 416.407C468.544 425.837 465.234 434.876 460.105 442.885L412.393 412.767C413.33 411.291 413.832 409.58 413.842 407.831C413.828 407.494 413.797 407.157 413.747 406.824L413.776 406.816ZM466.949 386.904L413.494 405.359C412.958 403.802 412.228 402.319 411.321 400.945L436.669 350.719C450.875 358.628 461.651 371.521 466.92 386.912L466.949 386.904ZM341.086 246.064L344.845 256.458L280.013 276.45L279.339 263.047L316.275 252.174C316.351 253.003 316.3 253.84 316.123 254.653C317.056 253.674 317.897 252.611 318.636 251.478L340.666 244.998L341.086 246.064ZM92.1861 472.801L88.565 416.986C89.2976 416.975 90.0266 416.88 90.7377 416.703L120.431 464.16C111.786 469.133 102.131 472.087 92.1861 472.801ZM33.8066 446.082L79.6136 413.231L79.7005 413.347L60.9142 467.596C50.133 462.956 40.7778 455.531 33.8066 446.082ZM21.1545 405.736C21.4207 395.659 24.0398 385.784 28.8023 376.901L78.2521 404.366C77.9853 405.122 77.8173 405.909 77.7524 406.708L21.1545 405.736ZM118.251 349.726L95.3437 395.11L91.8385 398.734C90.7452 398.314 89.5841 398.097 88.4129 398.096H88.2753L90.0641 342.137C99.9068 342.537 109.536 345.129 118.251 349.726ZM140.166 368.355C144.349 373.885 147.621 380.049 149.856 386.614L101.702 403.236L140.166 368.355ZM98.9214 405.758L150.341 388.021C150.824 389.62 151.268 391.246 151.674 392.899C151.761 393.276 151.84 393.624 151.92 394.022C128.81 398.828 107.257 404.134 98.2406 406.403L98.9214 405.758ZM86.7834 398.118C85.3482 398.176 83.9446 398.558 82.6771 399.234L63.2028 346.544C70.8643 343.587 79.0066 342.076 87.218 342.086C87.6815 342.086 88.1449 342.086 88.6084 342.086L86.7834 398.118ZM81.3735 400.075C80.3305 400.867 79.4625 401.867 78.8242 403.011L29.5192 375.604C31.3371 372.407 33.4205 369.368 35.7476 366.521L41.1647 360.621C47.1408 354.851 54.1474 350.258 61.8195 347.08L81.3735 400.075ZM152 420.48C150.406 428.34 147.365 435.834 143.034 442.581L96.2055 413.021C105.758 414.543 128.238 417.95 152 420.48ZM172.908 388.731C170.005 376.003 164.244 364.105 156.062 353.938L158.358 351.857L178.318 371.363V388.963C176.609 389.258 174.887 389.562 173.154 389.876C173.074 389.492 173.002 389.115 172.915 388.738L172.908 388.731ZM178.318 351.683L177.883 351.263L178.318 351.618V351.683ZM193.802 326.146L193.852 326.11L194.946 325.385L195.431 325.059L195.967 324.704L196.575 324.305L197.14 323.943L197.828 323.501L198.4 323.138L199.24 322.616L199.755 322.297L200.653 321.754C201.008 325.042 201.827 328.264 203.086 331.322L203.369 357.294C199.169 352.57 195.921 347.079 193.802 341.122V326.146ZM276.805 212.343C278.564 213.909 279.701 214.88 279.701 214.88C279.701 214.88 283.431 218.243 287.675 222.593C283.902 222.593 280.397 222.593 277.319 222.672L276.805 212.343ZM278.101 238.184C284.148 238.395 292.013 238.605 300.385 238.663C300.443 238.844 300.501 239.025 300.537 239.192C302.247 239.721 303.919 240.365 305.542 241.12L278.702 250.239L278.101 238.184ZM284.923 190.561C284.923 190.561 279.397 176.064 272.655 165.104C276.211 154.68 282.837 143.655 295.214 138.769L295.127 139.762L295.084 140.299C294.693 144.873 294.244 150.447 293.86 156.173V156.507C293.816 157.188 293.771 157.872 293.722 158.558V158.913L293.672 159.754L293.621 160.581L293.578 161.305C293.549 161.789 293.52 162.272 293.491 162.755V163.168C293.491 163.584 293.469 163.999 293.425 164.415V164.901C293.401 165.384 293.377 165.882 293.353 166.394V166.481C293.324 167.037 293.3 167.588 293.281 168.134V168.38C293.281 168.863 293.261 169.366 293.223 169.888V170.004C293.179 171.11 293.145 172.19 293.121 173.244V173.36C293.121 174.411 293.078 175.426 293.063 176.404V176.491C293.063 177.477 293.063 178.419 293.063 179.311C293.063 179.741 293.063 180.161 293.063 180.572V180.652C293.063 181.464 293.114 182.225 293.157 182.928V183.059C293.201 183.74 293.259 184.371 293.324 184.929V185.059C293.353 185.296 293.384 185.521 293.418 185.733V185.849C293.462 186.081 293.498 186.306 293.549 186.502V186.581C293.585 186.748 293.628 186.9 293.672 187.038L293.708 187.161C293.754 187.302 293.81 187.441 293.874 187.574C295.113 190.024 295.707 197.563 295.975 205.544C289.594 197.295 284.916 190.546 284.916 190.546L284.923 190.561ZM193.802 385.368V364.47L203.535 372.545L203.673 385.382C200.559 385.687 197.249 386.107 193.794 386.556L193.802 385.368ZM193.802 276.841C196.322 276.522 198.799 276.116 201.196 275.725C201.553 277.519 201.689 279.349 201.601 281.176V292.23H202.101C199.234 294.049 196.464 296.016 193.802 298.123V276.849V276.841ZM130.838 358.381L98.82 391.485L119.547 350.422C123.215 352.466 126.68 354.854 129.896 357.555C130.222 357.823 130.526 358.142 130.838 358.381ZM21.1328 407.534C21.1328 407.425 21.1328 407.316 21.1328 407.208L77.7524 408.208C77.8434 409.52 78.2112 410.797 78.8315 411.956L32.9665 444.886C25.2589 433.959 21.1246 420.91 21.1328 407.534ZM87.2252 472.996C78.6808 473.006 70.2147 471.367 62.2903 468.169L80.852 414.529C82.5672 416.064 84.7794 416.927 87.0804 416.957L90.7015 472.895C89.5499 472.96 88.3912 472.996 87.2252 472.996ZM121.713 463.37L92.1716 416.203C93.3065 415.72 94.337 415.021 95.2061 414.145L142.208 443.821C136.867 451.742 129.875 458.411 121.713 463.37ZM241.339 379.96C239.626 379.476 237.854 379.232 236.074 379.235H235.48H234.887C231.876 379.227 228.906 379.93 226.218 381.287C224.958 373.502 224.32 363.586 227.137 355.953C228.815 351.342 230.075 346.589 230.903 341.753L236.951 307.525L349.473 269.31L350.849 273.123L241.339 379.96ZM338.19 407.831C338.19 407.722 338.19 407.614 338.19 407.505L394.338 408.498C394.753 409.785 395.261 411.04 395.859 412.253L349.994 445.183C342.297 434.253 338.173 421.204 338.19 407.831ZM404.282 473.293C395.738 473.303 387.271 471.664 379.347 468.466L397.909 414.826C399.624 416.362 401.836 417.224 404.137 417.254L407.758 473.199C406.604 473.262 405.446 473.293 404.282 473.293ZM438.777 463.675L408.946 416.051C409.915 415.51 410.783 414.803 411.51 413.963L459.308 444.125C453.956 452.05 446.951 458.719 438.777 463.675Z" transform="translate(-73.561 43.7888)" fill="url(#paint0_linear)"/>
<path d="M77.7596 148.619L73.226 77.6545L73.1318 77.5023L68.5547 79.097L47.4872 140.573L13.992 116.797L67.3598 78.0822L67.4105 77.93L67.7147 77.8212L71.1547 75.3205L15.2159 43.9267L1.50639 59.0038L3.67906 73.1386L67.9899 74.2839V75.7336L2.46233 74.5594L0 58.5327L18.7501 37.9103L46.7919 5.16827L47.2916 6.52376L53.2302 0L75.3479 3.96502V3.08792L76.7964 3.13141V4.22596L109.647 10.1118L78.9908 71.4714L74.5223 74.7116V75.074V75.4799L145.358 50.7766L136.95 116.891L76.8398 78.5679L74.7251 77.3791L110.169 134.563L77.7596 148.619ZM74.8627 80.235L79.0994 146.473L108.104 133.875L74.8627 80.235ZM16.5122 116.797L46.7774 138.275L66.5776 80.4743L16.5122 116.797ZM76.1301 76.4513L77.6437 77.2994L135.835 114.412L143.656 52.8932L76.1301 76.4513ZM70.9881 71.2323L72.8059 74.1679L73.1246 73.936L75.2972 5.41475L53.7589 1.54396L47.8493 8.06772L70.9881 71.2323ZM16.3891 42.9264L70.5898 73.3706L69.6483 71.8267L46.7774 9.29274L19.8364 38.9251L16.3891 42.9264ZM76.7674 5.67569L74.5948 72.8632L77.8682 70.4856L107.496 11.1774L76.7674 5.67569Z" transform="translate(252.744 371.392)" fill="#535461"/>
<path d="M77.7669 148.633L73.226 77.64L73.1319 77.4878L68.5548 79.0825L47.4944 140.587L13.9992 116.819L67.3526 78.1039L67.4033 77.9517L67.7074 77.843L71.1475 75.3422L15.2086 43.9484L1.50638 59.0256L3.67904 73.1604L68.0044 74.3346V75.7844L2.47683 74.6101L0 58.5616L18.7573 37.9321L46.8209 5.16827L47.3206 6.52376L53.2592 0L75.319 3.95772V3.08067L76.7674 3.12416V4.21871L109.618 10.1046L78.9908 71.4352L74.5223 74.6753V75.0377V75.4437L145.351 50.7404L136.943 116.855L76.8326 78.5316L74.7179 77.3428L110.161 134.52L77.7669 148.633ZM74.87 80.2495L79.1067 146.487L108.112 133.889L74.87 80.2495ZM16.5122 116.804L46.7774 138.282L66.5776 80.4815L16.5122 116.804ZM76.1301 76.4585L77.6437 77.3066L135.835 114.42L143.656 52.9005L76.1301 76.4585ZM70.9881 71.2395L72.8059 74.1752L73.1246 73.9432L75.2973 5.42196L53.7589 1.56568L47.8493 8.08945L70.9881 71.2395ZM16.3674 42.9263L70.5681 73.3706L69.6266 71.8266L46.7557 9.29274L19.8219 38.9179L16.3674 42.9263ZM76.7674 5.67569L74.5948 72.8849L77.8682 70.5074L107.496 11.1991L76.7674 5.67569Z" transform="translate(-55.919 371.088)" fill="#535461"/>
<path d="M43.4723 0H0V13.7664H43.4723V0Z" transform="translate(86.349 371.247) scale(0.999557 1.00044) rotate(44.6197)" fill="#6C63FF"/>
<path opacity="0.1" d="M43.4723 0H0V13.7664H43.4723V0Z" transform="translate(86.349 371.247) scale(0.999557 1.00044) rotate(44.6197)" fill="black"/>
<path d="M0 42.7379C0 42.7379 17.9534 33.2567 24.8915 27.1533C29.0682 23.4959 33.5588 20.2141 38.3113 17.3459L60.8346 3.62431L107.909 0L110.082 7.97349C110.082 7.97349 113.703 19.5713 77.4917 29.7193C41.2806 39.8674 23.1751 55.8144 23.1751 55.8144C23.1751 55.8144 0 63.7589 0 42.7379Z" transform="translate(93.7268 313.889)" fill="#DB8B8B"/>
<path opacity="0.1" d="M25.0943 13.091C23.8124 14.0696 23.1751 14.635 23.1751 14.635C23.1751 14.635 0 22.6085 0 1.58745C0 1.58745 1.12254 0.993062 2.89688 0C4.68955 2.9217 7.20059 5.33466 10.1903 7.00848C13.1799 8.6823 16.5484 9.56109 19.974 9.56094H22.4291L25.0943 13.091Z" transform="translate(93.7268 355.039)" fill="black"/>
<path opacity="0.05" d="M109.401 12.0037C107.387 16.2732 100.442 23.2898 77.4917 29.7194C48.081 37.9611 30.6128 50.0155 25.0943 54.2705C23.8124 55.249 23.1751 55.8144 23.1751 55.8144C23.1751 55.8144 0 63.7879 0 42.7669C0 42.7669 1.12254 42.1725 2.89688 41.1794C8.27785 38.2293 19.6698 31.7562 24.8697 27.1534C29.0455 23.4948 33.5362 20.2128 38.2896 17.346L60.8128 3.62431L69.1993 2.97917L107.887 0L110.06 7.97349C110.06 7.97349 110.567 9.53194 109.401 12.0037Z" transform="translate(93.7268 313.86)" fill="black"/>
<path d="M19.1919 0L0 12.6851L56.1996 59.8012C56.1996 59.8012 64.4557 54.7271 60.1103 48.9282C60.1103 48.9282 45.6259 36.6056 44.9017 19.2089L40.5564 13.41H38.1013C33.9498 13.4105 29.9007 12.1206 26.5133 9.71835C23.126 7.31615 20.5677 3.9203 19.1919 0Z" transform="translate(74.8971 351.915)" fill="#ABB1D1"/>
<path opacity="0.1" d="M40.1798 12.0037C28.5922 6.40053 0.30416 5.7989 0.30416 5.7989L0 2.97917L38.6879 0L40.8605 7.97349C40.8605 7.97349 41.3458 9.53194 40.1798 12.0037Z" transform="translate(162.948 313.86)" fill="black"/>
<path d="M8.69065 79.7349C8.69065 79.7349 42.729 80.4597 51.4197 87.7084L47.0744 0H0L8.69065 79.7349Z" transform="translate(154.561 238.474)" fill="#ABB1D1"/>
<path opacity="0.05" d="M8.69065 79.7349C8.69065 79.7349 42.729 80.4597 51.4197 87.7084L47.0744 0H0L8.69065 79.7349Z" transform="translate(154.561 238.112)" fill="black"/>
<path d="M85.2822 5.3219e-05C77.5957 -0.00854734 69.9435 1.02532 62.5344 3.07346C58.7132 4.1281 54.9716 5.45312 51.3379 7.03849C31.9793 15.4378 16.4209 30.7246 7.67253 49.9417C-1.07585 69.1588 -2.39246 90.9405 3.97734 111.073C10.3472 131.206 23.9507 148.258 42.1564 158.932C60.3621 169.606 81.8761 173.143 102.536 168.858C123.197 164.573 141.535 152.771 154.004 135.736C166.473 118.7 172.187 97.6408 170.039 76.6325C167.891 55.6242 158.036 36.1597 142.378 22.0042C126.721 7.84877 106.374 0.0084957 85.2749 5.3219e-05H85.2822ZM84.9925 149.387C70.3046 149.381 56.0607 144.347 44.6262 135.12C33.1917 125.893 25.2549 113.028 22.1337 98.6632C19.0125 84.298 20.8948 69.2965 27.468 56.1499C34.0412 43.0033 44.9098 32.5029 58.2687 26.3923C61.6667 24.8354 65.1953 23.5813 68.8134 22.6448C77.6577 20.347 86.8896 19.9609 95.8946 21.5121C104.9 23.0633 113.471 26.5163 121.039 31.6413C128.607 36.7663 134.998 43.4458 139.786 51.2352C144.574 59.0246 147.649 67.7453 148.808 76.817C149.967 85.8888 149.181 95.1034 146.505 103.848C143.829 112.592 139.322 120.666 133.285 127.531C127.249 134.397 119.821 139.897 111.495 143.665C103.169 147.434 94.1372 149.384 84.9998 149.387H84.9925Z" transform="translate(241.535 361.425)" fill="#535461"/>
<path d="M1.93924 0.344461C1.93924 0.344461 87.1439 -2.55497 88.882 8.47019C90.6201 19.4953 3.67735 14.849 3.67735 14.849C3.67735 14.849 -3.27515 7.88303 1.93924 0.344461Z" transform="translate(188.659 264.196)" fill="#535461"/>
<path opacity="0.05" d="M1.93924 0.344461C1.93924 0.344461 87.1439 -2.55497 88.882 8.47019C90.6201 19.4953 3.67735 14.849 3.67735 14.849C3.67735 14.849 -3.27515 7.88303 1.93924 0.344461Z" transform="translate(188.659 264.196)" fill="black"/>
<path d="M15.071 0H0V131.113H15.071V0Z" transform="translate(106.553 308.634)" fill="#6C63FF"/>
<path opacity="0.1" d="M15.071 0V10.0973C10.0594 10.7497 4.93195 11.1629 0 11.3224V0H15.071Z" transform="translate(106.553 308.626)" fill="black"/>
<path d="M44.2118 3.2427C42.0973 3.07902 39.9937 2.79586 37.9111 2.3946C29.7419 0.828895 9.14503 -2.45473 3.60474 3.11946C-3.34778 10.0781 -1.03026 22.2631 17.517 24.0027C36.0643 25.7424 67.9446 21.1033 74.3249 14.1374C74.3249 14.1084 62.7881 4.67068 44.2118 3.2427Z" transform="translate(76.2822 294.518)" fill="#535461"/>
<path d="M0 49.3124L158.242 0L163.457 12.1849L1.15876 67.8761L0 49.3124Z" transform="translate(117.568 295.289)" fill="#6C63FF"/>
<path d="M0 112.549L114.188 0L120.561 9.27823L11.5875 122.987L0 112.549Z" transform="translate(164.519 309.793)" fill="#6C63FF"/>
<path opacity="0.1" d="M17.4682 19.5785C13.8501 20.5151 10.3216 21.7691 6.92355 23.3261L0 3.96502C3.63364 2.37966 7.37522 1.05464 11.1965 0L17.4682 19.5785Z" transform="translate(292.873 364.491)" fill="black"/>
<path d="M67.2367 168.248L59.1254 172.887L2.53477 14.6277L0 7.54582L13.3329 0L16.6716 10.4235L67.2367 168.248Z" transform="translate(262.478 272.659)" fill="#6C63FF"/>
<path opacity="0.1" d="M16.6716 10.4235L2.53477 14.6277L0 7.54582L13.3329 0L16.6716 10.4235Z" transform="translate(262.478 272.659)" fill="black"/>
<path d="M0.825003 27.2693L80.2358 0C80.2358 0 94.1481 1.73967 88.9265 13.3447L8.94349 37.1275C8.94349 37.1275 -3.22339 38.2872 0.825003 27.2693Z" transform="translate(192.091 268.02)" fill="#535461"/>
<path d="M168.32 66.4977C165.415 53.5811 159.535 41.5225 151.149 31.2839C148.035 27.479 144.602 23.9481 140.886 20.7299C126.6 8.38459 108.623 1.13639 89.7759 0.122876C70.9289 -0.890634 52.2791 4.38793 36.7536 15.1301C21.228 25.8723 9.70542 41.47 3.9943 59.4753C-1.71681 77.4806 -1.29321 96.8742 5.19863 114.613C11.6905 132.351 23.8831 147.43 39.8629 157.482C55.8427 167.535 74.7051 171.993 93.4898 170.156C112.275 168.319 129.918 160.291 143.652 147.333C157.385 134.375 166.431 117.219 169.37 98.5584C170.054 94.165 170.398 89.7253 170.398 85.2789C170.403 78.9608 169.706 72.6617 168.32 66.4977ZM84.8969 149.386C71.6928 149.372 58.8133 145.288 48.0099 137.69C37.2064 130.091 29.0031 119.347 24.5156 106.918C20.0281 94.4886 19.4741 80.9777 22.9288 68.2223C26.3836 55.4669 33.6796 44.0859 43.8246 35.6269C53.9696 27.1679 66.4714 22.0415 79.63 20.9446C92.7885 19.8478 105.965 22.8338 117.369 29.4966C128.772 36.1594 137.848 46.1756 143.364 58.1834C148.879 70.1911 150.565 83.6076 148.194 96.6085C145.478 111.427 137.657 124.823 126.092 134.466C114.526 144.109 99.9494 149.389 84.8969 149.386Z" transform="translate(-67.0323 361.136)" fill="#535461"/>
<path opacity="0.1" d="M22.7768 18.7667C22.776 23.2131 22.4322 27.6528 21.7484 32.0462C14.7958 31.546 7.61157 30.8212 0.572141 30.0963C2.13602 21.4771 1.9414 12.6302 0 4.08824C6.85837 2.63851 13.8616 1.25401 20.6983 0C22.0835 6.1592 22.7806 12.4534 22.7768 18.7667Z" transform="translate(80.5895 427.649)" fill="black"/>
<path opacity="0.1" d="M15.071 0V15.4178H0V2.37027C5.21439 1.46419 10.2839 0.659625 15.071 0Z" transform="translate(106.553 424.322)" fill="black"/>
<path d="M2.29579 22.4923C2.29579 22.4923 124.023 -9.40165 133.872 2.7688C143.722 14.9392 154.158 31.1907 123.465 36.9896C92.7727 42.7885 0 27.1242 0 27.1242L2.29579 22.4923Z" transform="translate(21.9493 423.655)" fill="#6C63FF"/>
<path opacity="0.1" d="M24.7104 10.554L9.24107 24.7251C6.50159 21.2051 3.40465 17.9791 0 15.0989L14.441 0C18.1591 3.21785 21.5948 6.74878 24.7104 10.554Z" transform="translate(59.4059 381.866)" fill="black"/>
<path d="M0 95.1454L90.9984 0L93.9025 22.0431L4.63501 103.844L0 95.1454Z" transform="translate(20.1894 344.601)" fill="#6C63FF"/>
<path opacity="0.1" d="M9.27727 18.571C14.401 18.571 18.5545 14.4137 18.5545 9.28549C18.5545 4.15725 14.401 0 9.27727 0C4.15357 0 0 4.15725 0 9.28549C0 14.4137 4.15357 18.571 9.27727 18.571Z" transform="translate(9.75342 436.84)" fill="black"/>
<path d="M9.27727 18.571C14.401 18.571 18.5546 14.4137 18.5546 9.28549C18.5546 4.15725 14.401 0 9.27727 0C4.15357 0 0 4.15725 0 9.28549C0 14.4137 4.15357 18.571 9.27727 18.571Z" transform="translate(8.58739 436.84)" fill="#535461"/>
<path opacity="0.1" d="M9.27727 18.571C14.401 18.571 18.5545 14.4137 18.5545 9.28549C18.5545 4.15725 14.401 0 9.27727 0C4.15357 0 0 4.15725 0 9.28549C0 14.4137 4.15357 18.571 9.27727 18.571Z" transform="translate(316.671 435.97)" fill="black"/>
<path d="M9.27727 18.571C14.401 18.571 18.5545 14.4137 18.5545 9.28549C18.5545 4.15725 14.401 0 9.27727 0C4.15357 0 0 4.15725 0 9.28549C0 14.4137 4.15357 18.571 9.27727 18.571Z" transform="translate(317.25 437.13)" fill="#535461"/>
<path opacity="0.1" d="M18.5473 37.1275C28.7907 37.1275 37.0946 28.8162 37.0946 18.5637C37.0946 8.31125 28.7907 0 18.5473 0C8.30392 0 0 8.31125 0 18.5637C0 28.8162 8.30392 37.1275 18.5473 37.1275Z" transform="translate(143.068 418.283)" fill="black"/>
<path d="M18.5473 37.1275C28.7907 37.1275 37.0946 28.8162 37.0946 18.5637C37.0946 8.31125 28.7907 0 18.5473 0C8.3039 0 0 8.31125 0 18.5637C0 28.8162 8.3039 37.1275 18.5473 37.1275Z" transform="translate(144.234 418.283)" fill="#535461"/>
<path d="M4.93351 0H4.92626C2.20556 0 0 2.20611 0 4.92749V29.5215C0 32.2429 2.20556 34.449 4.92626 34.449H4.93351C7.65421 34.449 9.85977 32.2429 9.85977 29.5215V4.92749C9.85977 2.20611 7.65421 0 4.93351 0Z" transform="matrix(0.800582 -0.599224 0.598544 0.80109 153.88 438.409)" fill="#6C63FF"/>
<path d="M28.4145 6.52376L26.6909 28.3494C26.4925 31.114 26.5289 33.8905 26.7995 36.6491C27.024 39.0918 26.7995 43.3685 24.4095 49.8923C21.341 58.226 19.7552 67.0333 19.7238 75.9149V100.756L3.06676 97.8564C3.06676 97.8564 3.79098 63.063 0.8941 57.2641C-2.00278 51.4652 3.06676 0 3.06676 0L28.4145 6.52376Z" transform="translate(218.123 172.512)" fill="#DB8B8B"/>
<path opacity="0.05" d="M27.552 17.3387L26.6829 28.3494C26.4871 31.1118 26.5259 33.8859 26.7988 36.6418C27.0233 39.0846 26.7988 43.3613 24.4088 49.8923C21.3403 58.226 19.7545 67.0333 19.7231 75.9149V100.756L3.06606 97.8564C3.06606 97.8564 3.79028 63.063 0.893395 57.2641C-1.15615 53.1542 0.784742 26.1386 2.09558 10.7207C2.63875 4.37818 3.06606 0 3.06606 0L28.4138 6.52376L27.552 17.3387Z" transform="translate(218.131 172.512)" fill="black"/>
<path d="M36.0711 41.4313L29.8066 77.0946C29.0167 81.8562 27.8049 86.5379 26.1855 91.0844C22.5137 101.131 24.8602 115.215 26.6418 122.899C27.4312 126.291 28.0902 128.437 28.0902 128.437L9.26046 138.585L3.46669 134.236V131.336L2.74247 66.8233C-1.60286 56.6752 -0.154417 41.4531 2.74247 35.6542C3.56618 33.7489 4.14534 31.7468 4.46612 29.6958C5.91456 21.9253 6.36357 11.0089 6.36357 11.0089C6.36357 11.0089 17.9511 -8.56244 31.7113 4.48509C36.7809 9.29093 38.7073 15.5755 39.1128 21.5919C39.8226 31.8921 36.0711 41.4313 36.0711 41.4313Z" transform="translate(127.92 304.322)" fill="#DB8B8B"/>
<path opacity="0.1" d="M34.6467 21.5918C24.6018 27.5647 7.12634 29.2537 0 29.6958C1.44844 21.9253 1.89746 11.0089 1.89746 11.0089C1.89746 11.0089 13.485 -8.56244 27.2452 4.48509C32.3147 9.29093 34.2411 15.5755 34.6467 21.5918Z" transform="translate(132.386 304.301)" fill="black"/>
<path d="M97.9329 108.005C90.2316 112.109 82.954 116.965 76.2063 122.502C64.6187 131.925 35.6499 132.65 35.6499 132.65V121.777C36.3741 108.729 24.0623 94.2321 7.40526 53.6398C-3.23355 27.7187 -0.285974 13.0475 3.23374 5.7989C5.23259 1.70343 7.40526 0 7.40526 0L97.9329 17.3967L101.17 27.1099L108.072 47.8409C108.072 47.8409 82.7243 49.2907 78.3789 51.4652C74.0336 53.6398 76.9305 73.2111 76.9305 73.2111C72.5852 93.5073 97.9329 108.005 97.9329 108.005Z" transform="translate(93.5638 200.056)" fill="#ABB1D1"/>
<path opacity="0.1" d="M26.3182 6.52376L25.4636 17.3387C12.8622 20.963 3.86736 9.42321 3.86736 9.42321C2.55288 9.77592 1.26131 10.2092 0 10.7207C0.543166 4.37818 0.970476 0 0.970476 0L26.3182 6.52376Z" transform="translate(220.219 172.512)" fill="black"/>
<path opacity="0.1" d="M98.8344 27.1099C98.494 30.495 98.4941 32.6188 98.4941 32.6188C98.4941 32.6188 81.837 46.3912 53.5924 25.3702C25.3477 4.34917 0 10.1481 0 10.1481C0 10.1481 0.296924 8.46639 0.898027 5.7989C2.89688 1.70343 5.06955 0 5.06955 0L95.5972 17.3967L98.8344 27.1099Z" transform="translate(95.8995 200.056)" fill="black"/>
<path d="M160.4 61.6133C158.51 76.3643 157.88 94.957 157.88 94.957C141.223 108.005 128.187 91.3327 128.187 91.3327C112.457 95.5586 105.063 109.338 101.579 121.364C99.7135 127.868 98.6768 134.583 98.4941 141.348C98.4941 141.348 94.0908 144.973 85.9795 145.697C78.31 146.342 67.3164 144.342 53.5924 134.1C25.3477 113.079 0 118.877 0 118.877C0 118.877 5.06955 89.883 16.6571 81.1846C28.2446 72.4863 36.9353 61.6133 51.4197 28.2696C65.9041 -5.07404 95.5972 2.89945 95.5972 2.89945C95.5972 2.89945 97.0456 -3.62431 123.842 2.89945C130.368 4.61156 136.41 7.81474 141.491 12.2574C155.823 24.3191 162.776 43.0279 160.4 61.6133Z" transform="translate(95.8995 89.1161)" fill="white"/>
<path d="M38.63 8.41006C38.5938 9.37413 38.5141 10.4469 38.3837 11.643C36.9353 24.6905 35.4868 23.2408 19.554 26.1402C9.64662 27.9451 4.49744 19.6599 2.02061 13.1362C1.12419 10.7729 0.44776 8.33185 0 5.84405L34.7626 0.0451544C34.7626 0.0451544 38.9269 -1.12188 38.63 8.41006Z" transform="translate(190.794 99.9512)" fill="#DB8B8B"/>
<path opacity="0.05" d="M53.0564 58.2781C51.1906 64.7828 50.154 71.4976 49.9713 78.2626C49.9713 78.2626 45.568 81.8869 37.4567 82.6118C37.2282 82.15 37.0533 81.6636 36.9353 81.162C35.4868 74.6383 24.6235 63.0405 24.6235 63.0405C17.3813 56.5167 15.9329 44.9189 15.9329 44.9189L3.98322 9.76307L0 6.50119C0 6.50119 16.6571 -6.54634 31.1415 4.3266C45.6259 15.1995 41.2806 38.3951 41.2806 38.3951L44.1775 46.3686C47.183 48.9057 50.2392 53.3781 53.0564 58.2781Z" transform="translate(144.422 152.238)" fill="black"/>
<path d="M0 6.50119L15.9329 44.9189C15.9329 44.9189 17.3813 56.5167 24.6235 63.0405C24.6235 63.0405 35.4868 74.6383 36.9353 81.162C38.3837 87.6858 58.6619 105.082 58.6619 105.082C58.6619 105.082 77.4917 122.479 78.9401 129.003C78.9401 129.003 96.3214 134.077 94.1487 144.225C94.1487 144.225 107.185 131.178 94.1487 118.855C81.1128 106.532 63.7315 81.162 63.7315 81.162C63.7315 81.162 53.5924 54.3421 44.1775 46.3686L41.2806 38.3951C41.2806 38.3951 45.6259 15.1995 31.1415 4.3266C16.6571 -6.54634 0 6.50119 0 6.50119Z" transform="translate(146.595 151.513)" fill="#DB8B8B"/>
<path opacity="0.1" d="M24.6235 5.50173L5.79377 15.6498L0 11.3006V8.40118C6.50643 7.93865 12.8278 6.02938 18.5038 2.81247C20.242 1.82666 21.8787 0.855338 23.1896 0C23.95 3.35611 24.6235 5.50173 24.6235 5.50173Z" transform="translate(131.386 427.236)" fill="black"/>
<path opacity="0.1" d="M46.3501 9.58594L56.4892 49.4534C56.4892 49.4534 25.3477 54.5274 18.8297 49.4534C12.3118 44.3793 0 42.9296 0 42.9296C0 42.9296 13.036 5.23676 20.2782 0.887587C27.5204 -3.46159 46.3501 9.58594 46.3501 9.58594Z" transform="translate(131.386 117.984)" fill="black"/>
<path d="M46.3501 9.58594L56.4892 49.4534C56.4892 49.4534 25.3477 54.5274 18.8297 49.4534C12.3118 44.3793 0 42.9296 0 42.9296C0 42.9296 13.036 5.23676 20.2782 0.887587C27.5204 -3.46159 46.3501 9.58594 46.3501 9.58594Z" transform="translate(131.386 116.534)" fill="white"/>
<path opacity="0.1" d="M38.63 8.41006C36.6016 11.2125 34.0217 13.57 31.0492 15.3375C28.0767 17.105 24.7744 18.2452 21.3453 18.6879C17.9161 19.1306 14.4328 18.8664 11.1095 17.9117C7.78616 16.9569 4.69311 15.3318 2.02061 13.1362C1.12419 10.7729 0.44776 8.33185 0 5.84405L34.7626 0.0451544C34.7626 0.0451544 38.9269 -1.12188 38.63 8.41006Z" transform="translate(190.794 99.2263)" fill="black"/>
<path d="M50.6955 26.0087C50.6955 32.7373 48.0249 39.1903 43.2713 43.9481C38.5177 48.7059 32.0704 51.3789 25.3477 51.3789C18.6251 51.3789 12.1778 48.7059 7.42419 43.9481C2.67057 39.1903 2.83338e-07 32.7373 0 26.0087C0 25.5882 0 25.1678 0 24.7474C0.167106 18.0188 2.99793 11.6322 7.86971 6.99268C12.7415 2.35311 19.2552 -0.159408 25.9778 0.00784602C32.7004 0.1751 39.0813 3.00842 43.7168 7.88452C48.3523 12.7606 50.8626 19.2801 50.6955 26.0087Z" transform="translate(183.53 66.0432)" fill="#DB8B8B"/>
<path opacity="0.1" d="M50.6593 26.0087C50.6615 28.3469 50.3398 30.6741 49.7033 32.9238C47.744 33.3513 45.7007 33.164 43.8516 32.3875C41.143 31.3219 38.8183 29.488 36.2183 28.1687C28.8964 24.4575 20.184 25.1896 12.0728 26.4146C8.04608 27.0235 3.47626 27.5889 0.31141 25.0228C0.202532 24.9369 0.0985682 24.845 0 24.7474C0.167106 18.0188 2.99793 11.6322 7.86971 6.99268C12.7415 2.35311 19.2552 -0.159408 25.9778 0.00784602C32.7004 0.1751 39.0814 3.00842 43.7168 7.88452C48.3523 12.7606 50.8626 19.2801 50.6955 26.0087H50.6593Z" transform="translate(183.566 66.0432)" fill="black"/>
<path d="M0.451738 31.116C1.99433 35.958 9.4031 36.1103 13.2053 39.6766C15.1824 41.5322 16.1021 44.2722 18.2748 45.9249C21.2948 48.23 25.6546 47.7226 29.5002 47.1717C37.2422 46.0699 45.5562 45.4102 52.5377 48.7519C55.0145 49.9334 57.2379 51.5861 59.8234 52.5501C62.4088 53.5142 65.6172 53.6302 67.7174 51.9195C69.3976 50.5495 70.0132 48.2952 71.5341 46.7875C72.7145 45.5987 74.3585 44.9318 75.7055 43.888C78.6604 41.6555 79.935 38.0167 80.7751 34.5373C82.5132 27.3757 83.0129 19.6559 80.0509 12.8639C77.0888 6.07196 69.9625 0.54126 62.1843 0.896442C59.8017 1.00517 57.4769 1.6213 55.1015 1.88225C48.9094 2.51288 42.7897 0.432527 36.5759 0.0773441C34.7735 -0.142179 32.9451 0.10749 31.2673 0.802207C30.0025 1.50594 28.9112 2.48429 28.0735 3.66542C25.2287 7.39514 23.2808 11.7309 22.3812 16.336C21.657 19.8081 21.6207 22.954 17.3695 23.4904C12.539 24.1283 -2.8145 20.8737 0.451738 31.116Z" transform="translate(164.741 45.2426)" fill="#472727"/>
<path opacity="0.05" d="M0 0C0 0 18.8297 5.07404 24.6235 18.1216C30.4173 31.1691 46.0894 33.5539 46.0894 33.5539" transform="translate(115.816 169.975)" fill="black"/>
<path d="M43.4533 0H0V13.7724H43.4533V0Z" transform="translate(143.336 457.02)" fill="#6C63FF"/>
<path opacity="0.1" d="M43.4533 0H0V13.7724H43.4533V0Z" transform="translate(143.336 457.02)" fill="black"/>
<path d="M27.1655 5.248C31.0546 3.07341 34.4657 0.89883 34.7626 0C34.7626 0 44.5758 10.3655 53.3172 13.5839C56.2564 14.6707 59.0705 16.0705 61.7109 17.7591C65.1727 19.9337 70.1118 22.4925 74.5948 22.4925C74.5948 22.4925 84.7339 31.1909 65.1799 32.6406C45.6259 34.0903 0 29.0163 0 29.0163L2.89688 10.8947C11.361 11.3915 19.7883 9.43066 27.1655 5.248Z" transform="translate(122.696 426.214)" fill="#ABB1D1"/>
</g>
<defs>
<linearGradient id="paint0_linear" x2="1" gradientUnits="userSpaceOnUse" gradientTransform="translate(-1.1153 494.822) scale(494.324 494.762) rotate(-90)">
<stop stop-color="#808080" stop-opacity="0.25"/>
<stop offset="0.54" stop-color="#808080" stop-opacity="0.12"/>
<stop offset="1" stop-color="#808080" stop-opacity="0.1"/>
</linearGradient>
</defs>
</svg>
