<svg width="40" height="40" viewBox="0 0 40 40" fill="none" xmlns="http://www.w3.org/2000/svg">
<rect width="40" height="40" fill="white"/>
<path d="M34.2857 7.8421C33.668 4.21053 30.5277 1.47368 26.8726 1.47368C24.556 1.47368 22.3938 2.57895 20.9524 4.42105C19.408 1.68421 16.5251 0 13.4363 0C8.70013 0 4.83912 3.89474 4.73616 8.68421C1.90476 9.57895 0 12.2105 0 15.2632C0 19.0526 3.03732 22.1579 6.74389 22.1579C8.64865 22.1579 10.4505 21.3158 11.7375 19.8947C13.0759 23.6316 16.5766 26.1579 20.5405 26.1579C24.3501 26.1579 27.6963 23.8421 29.1892 20.3158C30.3732 21.2105 31.7632 21.6842 33.2046 21.6842C36.9627 21.6842 40 18.5789 40 14.7368C40 11.2632 37.5804 8.42105 34.2857 7.8421ZM33.1532 20.6316C31.7117 20.6316 30.3218 20.1053 29.2407 19.1053C29.1377 19 28.9318 18.9474 28.7773 19C28.6229 19.0526 28.4685 19.1579 28.417 19.3684C27.2844 22.8421 24.0927 25.2105 20.4891 25.2105C16.6795 25.2105 13.3333 22.5789 12.4067 18.7368C12.3552 18.5263 12.2008 18.3684 11.9949 18.3684C11.9434 18.3684 11.9434 18.3684 11.8919 18.3684C11.7375 18.3684 11.583 18.4737 11.4801 18.5789C10.399 20.2105 8.64865 21.2105 6.74389 21.2105C3.6036 21.2105 1.0296 18.5789 1.0296 15.3684C1.0296 12.6842 2.8314 10.3158 5.40541 9.68421C5.66281 9.63158 5.81725 9.42105 5.81725 9.15789V9C5.81725 4.68421 9.26641 1.15789 13.4878 1.15789C16.4736 1.15789 19.2021 2.94737 20.4891 5.73684C20.592 5.89474 20.7465 6.05263 20.9009 6.05263C21.1068 6.05263 21.2613 5.94737 21.3642 5.78947C22.5483 3.78947 24.6589 2.63158 26.9241 2.63158C30.2188 2.63158 32.9987 5.15789 33.4106 8.47368C33.462 8.73684 33.6165 8.89474 33.8739 8.94737C36.8082 9.26316 39.0219 11.7895 39.0219 14.8421C38.9704 18 36.3449 20.6316 33.1532 20.6316Z" fill="black"/>
<path d="M0.5148 0C0.20592 0 0 0.210526 0 0.526316V10.1579C0 10.4737 0.20592 10.6842 0.5148 10.6842C0.823681 10.6842 1.0296 10.4737 1.0296 10.1579V0.526316C1.0296 0.263158 0.823681 0 0.5148 0Z" transform="translate(8.95758 24.8421)" fill="black"/>
<path d="M0.5148 0C0.20592 0 0 0.210526 0 0.526316V2.78947C0 3.10526 0.20592 3.31579 0.5148 3.31579C0.823681 3.31579 1.0296 3.10526 1.0296 2.78947V0.526316C1.0296 0.210526 0.823681 0 0.5148 0Z" transform="translate(8.95758 36.6842)" fill="black"/>
<path d="M0.5148 0C0.20592 0 0 0.210526 0 0.526316V5.10526C0 5.42105 0.20592 5.63158 0.5148 5.63158C0.823681 5.63158 1.0296 5.42105 1.0296 5.10526V0.526316C1.0296 0.263158 0.823681 0 0.5148 0Z" transform="translate(32.8958 34.3158)" fill="black"/>
<path d="M0.5148 0C0.20592 0 0 0.210526 0 0.526316V5.10526C0 5.42105 0.20592 5.63158 0.5148 5.63158C0.823681 5.63158 1.0296 5.42105 1.0296 5.10526V0.526316C1.0296 0.263158 0.823681 0 0.5148 0Z" transform="translate(12.8701 34.3158)" fill="black"/>
<path d="M0.5148 0C0.20592 0 0 0.210526 0 0.526316V7C0 7.31579 0.20592 7.52632 0.5148 7.52632C0.823681 7.52632 1.0296 7.31579 1.0296 7V0.526316C1.0296 0.263158 0.823681 0 0.5148 0Z" transform="translate(29.0862 32.421)" fill="black"/>
<path d="M0.5148 0C0.20592 0 0 0.210526 0 0.526316V6.05263C0 6.36842 0.20592 6.57895 0.5148 6.57895C0.823681 6.57895 1.0296 6.36842 1.0296 6.05263V0.526316C1.0296 0.263158 0.823681 0 0.5148 0Z" transform="translate(29.0862 24.8421)" fill="black"/>
<path d="M0.5148 0C0.20592 0 0 0.210526 0 0.526316V2.78947C0 3.10526 0.20592 3.31579 0.5148 3.31579C0.823681 3.31579 1.0296 3.10526 1.0296 2.78947V0.526316C1.0296 0.263158 0.823681 0 0.5148 0Z" transform="translate(20.695 29.1053)" fill="black"/>
<path d="M0.5148 0C0.20592 0 0 0.210526 0 0.526316V6.05263C0 6.36842 0.20592 6.57895 0.5148 6.57895C0.823681 6.57895 1.0296 6.36842 1.0296 6.05263V0.526316C1.0296 0.210526 0.823681 0 0.5148 0Z" transform="translate(20.695 33.421)" fill="black"/>
<path d="M0.5148 0C0.20592 0 0 0.210526 0 0.526316V6.05263C0 6.36842 0.20592 6.57895 0.5148 6.57895C0.823681 6.57895 1.0296 6.36842 1.0296 6.05263V0.526316C1.0296 0.210526 0.823681 0 0.5148 0Z" transform="translate(12.8701 26.7895)" fill="black"/>
<path d="M0.5148 0C0.20592 0 0 0.210526 0 0.526316V7.68421C0 8 0.20592 8.21052 0.5148 8.21052C0.823681 8.21052 1.0296 8 1.0296 7.68421V0.526316C1.0296 0.210526 0.823681 0 0.5148 0Z" transform="translate(32.8958 25.1579)" fill="black"/>
<path d="M0.5148 0C0.20592 0 0 0.210526 0 0.526316V10.7368C0 11.0526 0.20592 11.2632 0.5148 11.2632C0.823681 11.2632 1.0296 11.0526 1.0296 10.7368V0.526316C1.0296 0.210526 0.823681 0 0.5148 0Z" transform="translate(16.7825 28.7368)" fill="black"/>
<path d="M0.5148 0C0.20592 0 0 0.210526 0 0.526316V14.3158C0 14.6316 0.20592 14.8421 0.5148 14.8421C0.823681 14.8421 1.0296 14.6316 1.0296 14.3158V0.526316C1.0296 0.210526 0.772201 0 0.5148 0Z" transform="translate(4.89062 25.1579)" fill="black"/>
<path d="M0.5148 0C0.20592 0 0 0.210526 0 0.526316V12.1053C0 12.4211 0.20592 12.6316 0.5148 12.6316C0.823681 12.6316 1.0296 12.4211 1.0296 12.1053V0.526316C1.0296 0.210526 0.823681 0 0.5148 0Z" transform="translate(25.2252 27.3684)" fill="black"/>
</svg>
